<?xml version="1.0" encoding="UTF-8"?>
<svg id="Layer_2" data-name="Layer 2" xmlns="http://www.w3.org/2000/svg" viewBox="0 0 65.04 104.98">
  <defs>
    <style>
      .cls-1 {
        fill: #6d1edd;
      }
    </style>
  </defs>
  <g id="Layer_1-2" data-name="Layer 1">
    <path class="cls-1" d="m56.09,20.54h-6.3c-1.09,0-2.11.42-2.88,1.19-.89.88-1.31,2.1-1.16,3.36.25,2.07,2.17,3.55,4.27,3.55h2.01c2.69,0,4.87,2.17,4.87,4.85v41.98c0,2.68-2.18,4.85-4.87,4.85H13.02c-2.69,0-4.88-2.17-4.88-4.85v-41.98c0-2.68,2.18-4.85,4.87-4.85h3.03c2.1,0,4.02-1.48,4.27-3.55.15-1.26-.27-2.48-1.16-3.36-.77-.77-1.79-1.19-2.88-1.19h-7.32c-4.94,0-8.95,3.98-8.95,8.9v50.07c0,4.91,4.01,8.9,8.95,8.9h47.13c4.94,0,8.95-3.98,8.95-8.9V29.44c0-4.91-4.01-8.9-8.95-8.9Z"/>
    <ellipse class="cls-1" cx="18.19" cy="98.02" rx="6.99" ry="6.95"/>
    <ellipse class="cls-1" cx="46.84" cy="98.02" rx="6.99" ry="6.95"/>
    <path class="cls-1" d="m48.66,0H16.38c-2.98,0-5.4,2.41-5.4,5.37s2.42,5.37,5.4,5.37h10.42v12.79h.05v43.27c0,.87.71,1.58,1.59,1.58h8.64c.88,0,1.59-.71,1.59-1.58V23.53h.03v-12.79h9.95c2.98,0,5.4-2.41,5.4-5.37s-2.42-5.37-5.4-5.37Z"/>
  </g>
</svg>